<svg fill="none" height="56" width="56" xmlns="http://www.w3.org/2000/svg" xmlns:xlink="http://www.w3.org/1999/xlink"><filter id="a" color-interpolation-filters="sRGB" filterUnits="userSpaceOnUse" height="48" width="48" x="4" y="8"><feFlood flood-opacity="0" result="BackgroundImageFix"/><feColorMatrix in="SourceAlpha" values="0 0 0 0 0 0 0 0 0 0 0 0 0 0 0 0 0 0 127 0"/><feOffset dy="4"/><feGaussianBlur stdDeviation="2"/><feColorMatrix values="0 0 0 0 0 0 0 0 0 0 0 0 0 0 0 0 0 0 0.05 0"/><feBlend in2="BackgroundImageFix" result="effect1_dropShadow"/><feBlend in="SourceGraphic" in2="effect1_dropShadow" result="shape"/></filter><filter id="b" color-interpolation-filters="sRGB" filterUnits="userSpaceOnUse" height="17" width="26" x="3" y="4"><feFlood flood-opacity="0" result="BackgroundImageFix"/><feColorMatrix in="SourceAlpha" values="0 0 0 0 0 0 0 0 0 0 0 0 0 0 0 0 0 0 127 0"/><feOffset dy="1"/><feColorMatrix values="0 0 0 0 0.105882 0 0 0 0 0.121569 0 0 0 0 0.137255 0 0 0 0.05 0"/><feBlend in2="BackgroundImageFix" result="effect1_dropShadow"/><feBlend in="SourceGraphic" in2="effect1_dropShadow" result="shape"/></filter><filter id="c" color-interpolation-filters="sRGB" filterUnits="userSpaceOnUse" height="15.47" width="18.403" x="32.799" y="37.53"><feFlood flood-opacity="0" result="BackgroundImageFix"/><feColorMatrix in="SourceAlpha" values="0 0 0 0 0 0 0 0 0 0 0 0 0 0 0 0 0 0 127 0"/><feOffset dy="1"/><feColorMatrix values="0 0 0 0 0.105882 0 0 0 0 0.121569 0 0 0 0 0.137255 0 0 0 0.05 0"/><feBlend in2="BackgroundImageFix" result="effect1_dropShadow"/><feBlend in="SourceGraphic" in2="effect1_dropShadow" result="shape"/></filter><g filter="url(#a)"><rect fill="#fff" fill-opacity=".5" height="40" rx="3" width="40" x="8" y="8"/></g><path d="m14 25h15m-12 5h19m-19 5h19m-3-20h3m-3 5h9m-28 20h8" stroke="#fff" stroke-linecap="round" stroke-linejoin="round" stroke-width="2"/><g filter="url(#b)"><rect fill="#fff" height="16" rx="3" width="26" x="3" y="4"/></g><path clip-rule="evenodd" d="m8 9.5h8z" fill="#6f57ff" fill-rule="evenodd"/><path d="m8 9.5h8" stroke="#6f57ff" stroke-linecap="round" stroke-linejoin="round" stroke-width="2"/><g opacity=".3"><path clip-rule="evenodd" d="m8 13.5h17z" fill="#6f57ff" fill-rule="evenodd"/><path d="m8 13.5h17" stroke="#6f57ff" stroke-linecap="round" stroke-linejoin="round" stroke-width="2"/></g><g filter="url(#c)"><path d="m33.154 48.867 7.198-10.47a2 2 0 0 1 3.296 0l7.198 10.47c.912 1.327-.038 3.133-1.648 3.133h-14.396c-1.61 0-2.56-1.806-1.648-3.133z" fill="#fff"/></g><path clip-rule="evenodd" d="m41.993 45v-2z" fill="#6f57ff" fill-rule="evenodd"/><path d="m41.993 45v-2" stroke="#6f57ff" stroke-linecap="round" stroke-linejoin="round" stroke-width="2"/><path clip-rule="evenodd" d="m42 47a1 1 0 1 1 0 2 1 1 0 0 1 0-2z" fill="#6f57ff" fill-rule="evenodd"/></svg>