<svg fill="none" height="56" width="56" xmlns="http://www.w3.org/2000/svg" xmlns:xlink="http://www.w3.org/1999/xlink"><filter id="a" color-interpolation-filters="sRGB" filterUnits="userSpaceOnUse" height="56" width="44" x="6" y="4"><feFlood flood-opacity="0" result="BackgroundImageFix"/><feColorMatrix in="SourceAlpha" values="0 0 0 0 0 0 0 0 0 0 0 0 0 0 0 0 0 0 127 0"/><feOffset dy="4"/><feGaussianBlur stdDeviation="2"/><feColorMatrix values="0 0 0 0 0 0 0 0 0 0 0 0 0 0 0 0 0 0 0.05 0"/><feBlend in2="BackgroundImageFix" result="effect1_dropShadow"/><feBlend in="SourceGraphic" in2="effect1_dropShadow" result="shape"/></filter><filter id="b" color-interpolation-filters="sRGB" filterUnits="userSpaceOnUse" height="9" width="9" x="7" y="19"><feFlood flood-opacity="0" result="BackgroundImageFix"/><feColorMatrix in="SourceAlpha" values="0 0 0 0 0 0 0 0 0 0 0 0 0 0 0 0 0 0 127 0"/><feOffset dx="1" dy="1"/><feColorMatrix values="0 0 0 0 0.105882 0 0 0 0 0.121569 0 0 0 0 0.137255 0 0 0 0.05 0"/><feBlend in2="BackgroundImageFix" result="effect1_dropShadow"/><feBlend in="SourceGraphic" in2="effect1_dropShadow" result="shape"/></filter><filter id="c" color-interpolation-filters="sRGB" filterUnits="userSpaceOnUse" height="9" width="9" x="40" y="29"><feFlood flood-opacity="0" result="BackgroundImageFix"/><feColorMatrix in="SourceAlpha" values="0 0 0 0 0 0 0 0 0 0 0 0 0 0 0 0 0 0 127 0"/><feOffset dx="-1" dy="1"/><feColorMatrix values="0 0 0 0 0.105882 0 0 0 0 0.121569 0 0 0 0 0.137255 0 0 0 0.05 0"/><feBlend in2="BackgroundImageFix" result="effect1_dropShadow"/><feBlend in="SourceGraphic" in2="effect1_dropShadow" result="shape"/></filter><filter id="d" color-interpolation-filters="sRGB" filterUnits="userSpaceOnUse" height="11" width="11" x="4" y="36"><feFlood flood-opacity="0" result="BackgroundImageFix"/><feColorMatrix in="SourceAlpha" values="0 0 0 0 0 0 0 0 0 0 0 0 0 0 0 0 0 0 127 0"/><feOffset dx="1" dy="1"/><feColorMatrix values="0 0 0 0 0.105882 0 0 0 0 0.121569 0 0 0 0 0.137255 0 0 0 0.05 0"/><feBlend in2="BackgroundImageFix" result="effect1_dropShadow"/><feBlend in="SourceGraphic" in2="effect1_dropShadow" result="shape"/></filter><filter id="e" color-interpolation-filters="sRGB" filterUnits="userSpaceOnUse" height="11" width="11" x="41" y="10"><feFlood flood-opacity="0" result="BackgroundImageFix"/><feColorMatrix in="SourceAlpha" values="0 0 0 0 0 0 0 0 0 0 0 0 0 0 0 0 0 0 127 0"/><feOffset dx="-1" dy="1"/><feColorMatrix values="0 0 0 0 0.105882 0 0 0 0 0.121569 0 0 0 0 0.137255 0 0 0 0.05 0"/><feBlend in2="BackgroundImageFix" result="effect1_dropShadow"/><feBlend in="SourceGraphic" in2="effect1_dropShadow" result="shape"/></filter><filter id="f" color-interpolation-filters="sRGB" filterUnits="userSpaceOnUse" height="7" width="6" x="48" y="8"><feFlood flood-opacity="0" result="BackgroundImageFix"/><feColorMatrix in="SourceAlpha" values="0 0 0 0 0 0 0 0 0 0 0 0 0 0 0 0 0 0 127 0"/><feOffset dy="1"/><feColorMatrix values="0 0 0 0 0.105882 0 0 0 0 0.121569 0 0 0 0 0.137255 0 0 0 0.05 0"/><feBlend in2="BackgroundImageFix" result="effect1_dropShadow"/><feBlend in="SourceGraphic" in2="effect1_dropShadow" result="shape"/></filter><filter id="g" color-interpolation-filters="sRGB" filterUnits="userSpaceOnUse" height="7" width="6" x="2" y="35"><feFlood flood-opacity="0" result="BackgroundImageFix"/><feColorMatrix in="SourceAlpha" values="0 0 0 0 0 0 0 0 0 0 0 0 0 0 0 0 0 0 127 0"/><feOffset dy="1"/><feColorMatrix values="0 0 0 0 0.105882 0 0 0 0 0.121569 0 0 0 0 0.137255 0 0 0 0.05 0"/><feBlend in2="BackgroundImageFix" result="effect1_dropShadow"/><feBlend in="SourceGraphic" in2="effect1_dropShadow" result="shape"/></filter><clipPath id="h"><path d="m0 0h56v56h-56z"/></clipPath><g clip-path="url(#h)"><g filter="url(#a)"><rect fill="#fff" fill-opacity=".5" height="48" rx="3" width="36" x="10" y="4"/></g><path d="m13 40a1 1 0 1 0 0 2zm4 2a1 1 0 1 0 0-2zm5-2a1 1 0 1 0 0 2zm13 2a1 1 0 1 0 0-2zm-22 0h4v-2h-4zm9 0h13v-2h-13zm-8.015-20a1 1 0 1 0 0 2zm6.015 2a1 1 0 1 0 0-2zm5-2a1 1 0 1 0 0 2zm6 2a1 1 0 1 0 0-2zm-17.015 0h6.015v-2h-6.015zm11.015 0h6v-2h-6zm17.015 8a1 1 0 1 1 0 2zm-6.003 2a1 1 0 1 1 0-2zm-5.003-2a1 1 0 1 1 0 2zm-6.002 2a1 1 0 1 1 0-2zm17.008 0h-6.003v-2h6.003zm-11.005 0h-6.002v-2h6.002zm11.986-20a1 1 0 1 1 0 2zm-3.984 2a1 1 0 1 1 0-2zm-5.003-2a1 1 0 1 1 0 2zm-13.005 2a1 1 0 0 1 0-2zm21.992 0h-3.984v-2h3.984zm-8.987 0h-13.005v-2h13.006v2z" fill="#fff"/><g filter="url(#b)"><rect fill="#fff" height="8" rx="2" width="8" x="7" y="19"/></g><g filter="url(#c)"><rect fill="#fff" height="8" rx="2" width="8" x="41" y="29"/></g><g filter="url(#d)"><rect fill="#fff" height="10" rx="2" width="10" x="4" y="36"/></g><g filter="url(#e)"><rect fill="#fff" height="10" rx="2" width="10" x="42" y="10"/></g><g filter="url(#f)"><path clip-rule="evenodd" d="m51 14a3 3 0 1 1 0-6 3 3 0 0 1 0 6z" fill="#6f57ff" fill-rule="evenodd"/></g><g filter="url(#g)"><path clip-rule="evenodd" d="m5 41a3 3 0 1 1 0-6 3 3 0 0 1 0 6z" fill="#6f57ff" fill-rule="evenodd"/></g></g></svg>