<svg width="56" height="56" fill="none" xmlns="http://www.w3.org/2000/svg"><g clip-path="url(#clip0)"><path d="M12.219 46.103l.789.645C17.235 50.118 22.705 52 28.08 52a23.853 23.853 0 0018.467-8.757c3.43-4.196 5.451-9.644 5.451-15.594 0-4.52-1.473-9.107-3.996-12.896M43.78 9.897l-.788-.646C38.764 5.881 33.294 4 27.918 4a23.853 23.853 0 00-18.467 8.756C6.021 16.952 4 22.4 4 28.351c0 4.52 1.473 9.106 3.996 12.896" stroke="#fff" stroke-width="2" stroke-linecap="round"/><path d="M39 11h6V5M11 51v-6h6" stroke="#fff" stroke-width="2" stroke-linecap="round" stroke-linejoin="round"/><circle cx="28" cy="28" r="16" fill="#fff" fill-opacity=".5"/><g filter="url(#filter0_d)" clip-rule="evenodd"><path fill-rule="evenodd" d="M3 17l9-14v9a1 1 0 001 1h8l-9 14v-9a1 1 0 00-1-1H3z" fill="#fff"/><path d="M3 17l9-14v9a1 1 0 001 1h8l-9 14v-9a1 1 0 00-1-1H3z" stroke="#fff" stroke-width="2" stroke-linecap="round" stroke-linejoin="round"/></g><g opacity=".5" filter="url(#filter1_dddddd)"><path fill-rule="evenodd" clip-rule="evenodd" d="M34.41 20.342A2 2 0 0136 22.299v5.006c0 1.773-.261 3.948-2.112 6.037-2.571 2.61-5.695 3.656-5.885 3.658-.19.002-3.516-1.165-5.877-3.658C20.32 31.434 20 29.074 20 27.305V22.3a2 2 0 011.59-1.957L28 19l6.41 1.342z" fill="#fff"/></g><path d="M36 27.305V22.3a2 2 0 00-1.59-1.957L28 19l.003 18c.19-.002 3.314-1.047 5.885-3.658C35.74 31.253 36 29.078 36 27.305z" fill="#fff"/></g><defs><filter id="filter0_d" x="1" y="2" width="21" height="27" filterUnits="userSpaceOnUse" color-interpolation-filters="sRGB"><feFlood flood-opacity="0" result="BackgroundImageFix"/><feColorMatrix in="SourceAlpha" values="0 0 0 0 0 0 0 0 0 0 0 0 0 0 0 0 0 0 127 0"/><feOffset dx="-1" dy="1"/><feColorMatrix values="0 0 0 0 0.105882 0 0 0 0 0.121569 0 0 0 0 0.137255 0 0 0 0.05 0"/><feBlend in2="BackgroundImageFix" result="effect1_dropShadow"/><feBlend in="SourceGraphic" in2="effect1_dropShadow" result="shape"/></filter><filter id="filter1_dddddd" x="-45" y="19" width="146" height="153" filterUnits="userSpaceOnUse" color-interpolation-filters="sRGB"><feFlood flood-opacity="0" result="BackgroundImageFix"/><feColorMatrix in="SourceAlpha" values="0 0 0 0 0 0 0 0 0 0 0 0 0 0 0 0 0 0 127 0"/><feOffset dy="2"/><feGaussianBlur stdDeviation="1"/><feColorMatrix values="0 0 0 0 0 0 0 0 0 0 0 0 0 0 0 0 0 0 0.0274351 0"/><feBlend in2="BackgroundImageFix" result="effect1_dropShadow"/><feColorMatrix in="SourceAlpha" values="0 0 0 0 0 0 0 0 0 0 0 0 0 0 0 0 0 0 127 0"/><feOffset dy="4"/><feGaussianBlur stdDeviation="2"/><feColorMatrix values="0 0 0 0 0 0 0 0 0 0 0 0 0 0 0 0 0 0 0.0400741 0"/><feBlend in2="effect1_dropShadow" result="effect2_dropShadow"/><feColorMatrix in="SourceAlpha" values="0 0 0 0 0 0 0 0 0 0 0 0 0 0 0 0 0 0 127 0"/><feOffset dy="10"/><feGaussianBlur stdDeviation="4"/><feColorMatrix values="0 0 0 0 0 0 0 0 0 0 0 0 0 0 0 0 0 0 0.0499982 0"/><feBlend in2="effect2_dropShadow" result="effect3_dropShadow"/><feColorMatrix in="SourceAlpha" values="0 0 0 0 0 0 0 0 0 0 0 0 0 0 0 0 0 0 127 0"/><feOffset dy="15"/><feGaussianBlur stdDeviation="7.5"/><feColorMatrix values="0 0 0 0 0 0 0 0 0 0 0 0 0 0 0 0 0 0 0.0596004 0"/><feBlend in2="effect3_dropShadow" result="effect4_dropShadow"/><feColorMatrix in="SourceAlpha" values="0 0 0 0 0 0 0 0 0 0 0 0 0 0 0 0 0 0 127 0"/><feOffset dy="30"/><feGaussianBlur stdDeviation="15"/><feColorMatrix values="0 0 0 0 0 0 0 0 0 0 0 0 0 0 0 0 0 0 0.0709366 0"/><feBlend in2="effect4_dropShadow" result="effect5_dropShadow"/><feColorMatrix in="SourceAlpha" values="0 0 0 0 0 0 0 0 0 0 0 0 0 0 0 0 0 0 127 0"/><feOffset dy="70"/><feGaussianBlur stdDeviation="32.5"/><feColorMatrix values="0 0 0 0 0 0 0 0 0 0 0 0 0 0 0 0 0 0 0.09 0"/><feBlend in2="effect5_dropShadow" result="effect6_dropShadow"/><feBlend in="SourceGraphic" in2="effect6_dropShadow" result="shape"/></filter><clipPath id="clip0"><path fill="#fff" d="M0 0h56v56H0z"/></clipPath></defs></svg>